<mxfile host="Electron" modified="2023-09-29T21:13:45.415Z" agent="Mozilla/5.0 (Windows NT 10.0; Win64; x64) AppleWebKit/537.36 (KHTML, like Gecko) draw.io/21.7.5 Chrome/114.0.5735.289 Electron/25.8.1 Safari/537.36" etag="jolCHRBhaHnXQnT8RFYm" version="21.7.5" type="device">
  <diagram id="C5RBs43oDa-KdzZeNtuy" name="Page-1">
    <mxGraphModel dx="1009" dy="619" grid="1" gridSize="10" guides="1" tooltips="1" connect="1" arrows="1" fold="1" page="1" pageScale="1" pageWidth="827" pageHeight="1169" math="0" shadow="0">
      <root>
        <mxCell id="WIyWlLk6GJQsqaUBKTNV-0" />
        <mxCell id="WIyWlLk6GJQsqaUBKTNV-1" parent="WIyWlLk6GJQsqaUBKTNV-0" />
        <mxCell id="Tp_ZuXKNJoOYkCJ87Kme-8" style="edgeStyle=orthogonalEdgeStyle;rounded=0;orthogonalLoop=1;jettySize=auto;html=1;exitX=1;exitY=1;exitDx=0;exitDy=0;" edge="1" parent="WIyWlLk6GJQsqaUBKTNV-1" source="Tp_ZuXKNJoOYkCJ87Kme-0" target="Tp_ZuXKNJoOYkCJ87Kme-6">
          <mxGeometry relative="1" as="geometry" />
        </mxCell>
        <mxCell id="Tp_ZuXKNJoOYkCJ87Kme-9" style="edgeStyle=orthogonalEdgeStyle;rounded=0;orthogonalLoop=1;jettySize=auto;html=1;exitX=0.75;exitY=1;exitDx=0;exitDy=0;entryX=0.5;entryY=0;entryDx=0;entryDy=0;" edge="1" parent="WIyWlLk6GJQsqaUBKTNV-1" source="Tp_ZuXKNJoOYkCJ87Kme-0" target="Tp_ZuXKNJoOYkCJ87Kme-5">
          <mxGeometry relative="1" as="geometry" />
        </mxCell>
        <mxCell id="Tp_ZuXKNJoOYkCJ87Kme-10" style="edgeStyle=orthogonalEdgeStyle;rounded=0;orthogonalLoop=1;jettySize=auto;html=1;exitX=0.5;exitY=1;exitDx=0;exitDy=0;entryX=0.5;entryY=0;entryDx=0;entryDy=0;" edge="1" parent="WIyWlLk6GJQsqaUBKTNV-1" source="Tp_ZuXKNJoOYkCJ87Kme-0" target="Tp_ZuXKNJoOYkCJ87Kme-4">
          <mxGeometry relative="1" as="geometry" />
        </mxCell>
        <mxCell id="Tp_ZuXKNJoOYkCJ87Kme-11" style="edgeStyle=orthogonalEdgeStyle;rounded=0;orthogonalLoop=1;jettySize=auto;html=1;exitX=0;exitY=1;exitDx=0;exitDy=0;entryX=0.5;entryY=0;entryDx=0;entryDy=0;" edge="1" parent="WIyWlLk6GJQsqaUBKTNV-1" source="Tp_ZuXKNJoOYkCJ87Kme-0" target="Tp_ZuXKNJoOYkCJ87Kme-7">
          <mxGeometry relative="1" as="geometry" />
        </mxCell>
        <mxCell id="Tp_ZuXKNJoOYkCJ87Kme-12" style="edgeStyle=orthogonalEdgeStyle;rounded=0;orthogonalLoop=1;jettySize=auto;html=1;exitX=0;exitY=0.5;exitDx=0;exitDy=0;entryX=1;entryY=0.5;entryDx=0;entryDy=0;" edge="1" parent="WIyWlLk6GJQsqaUBKTNV-1" source="Tp_ZuXKNJoOYkCJ87Kme-0" target="Tp_ZuXKNJoOYkCJ87Kme-3">
          <mxGeometry relative="1" as="geometry" />
        </mxCell>
        <mxCell id="Tp_ZuXKNJoOYkCJ87Kme-0" value="Usuario" style="whiteSpace=wrap;html=1;align=center;" vertex="1" parent="WIyWlLk6GJQsqaUBKTNV-1">
          <mxGeometry x="510" y="360" width="100" height="40" as="geometry" />
        </mxCell>
        <mxCell id="Tp_ZuXKNJoOYkCJ87Kme-22" style="edgeStyle=orthogonalEdgeStyle;rounded=0;orthogonalLoop=1;jettySize=auto;html=1;exitX=0;exitY=0.5;exitDx=0;exitDy=0;entryX=0.573;entryY=0.008;entryDx=0;entryDy=0;entryPerimeter=0;" edge="1" parent="WIyWlLk6GJQsqaUBKTNV-1" source="Tp_ZuXKNJoOYkCJ87Kme-1" target="Tp_ZuXKNJoOYkCJ87Kme-13">
          <mxGeometry relative="1" as="geometry" />
        </mxCell>
        <mxCell id="Tp_ZuXKNJoOYkCJ87Kme-23" style="edgeStyle=orthogonalEdgeStyle;rounded=0;orthogonalLoop=1;jettySize=auto;html=1;exitX=0;exitY=1;exitDx=0;exitDy=0;entryX=0.5;entryY=0;entryDx=0;entryDy=0;" edge="1" parent="WIyWlLk6GJQsqaUBKTNV-1" source="Tp_ZuXKNJoOYkCJ87Kme-1" target="Tp_ZuXKNJoOYkCJ87Kme-15">
          <mxGeometry relative="1" as="geometry" />
        </mxCell>
        <mxCell id="Tp_ZuXKNJoOYkCJ87Kme-24" style="edgeStyle=orthogonalEdgeStyle;rounded=0;orthogonalLoop=1;jettySize=auto;html=1;exitX=0.5;exitY=1;exitDx=0;exitDy=0;" edge="1" parent="WIyWlLk6GJQsqaUBKTNV-1" source="Tp_ZuXKNJoOYkCJ87Kme-1" target="Tp_ZuXKNJoOYkCJ87Kme-20">
          <mxGeometry relative="1" as="geometry" />
        </mxCell>
        <mxCell id="Tp_ZuXKNJoOYkCJ87Kme-25" style="edgeStyle=orthogonalEdgeStyle;rounded=0;orthogonalLoop=1;jettySize=auto;html=1;exitX=1;exitY=1;exitDx=0;exitDy=0;entryX=0.5;entryY=0;entryDx=0;entryDy=0;" edge="1" parent="WIyWlLk6GJQsqaUBKTNV-1" source="Tp_ZuXKNJoOYkCJ87Kme-1" target="Tp_ZuXKNJoOYkCJ87Kme-18">
          <mxGeometry relative="1" as="geometry" />
        </mxCell>
        <mxCell id="Tp_ZuXKNJoOYkCJ87Kme-26" style="edgeStyle=orthogonalEdgeStyle;rounded=0;orthogonalLoop=1;jettySize=auto;html=1;exitX=1;exitY=0.5;exitDx=0;exitDy=0;entryX=0.5;entryY=0;entryDx=0;entryDy=0;" edge="1" parent="WIyWlLk6GJQsqaUBKTNV-1" source="Tp_ZuXKNJoOYkCJ87Kme-1" target="Tp_ZuXKNJoOYkCJ87Kme-16">
          <mxGeometry relative="1" as="geometry" />
        </mxCell>
        <mxCell id="Tp_ZuXKNJoOYkCJ87Kme-41" style="edgeStyle=orthogonalEdgeStyle;rounded=0;orthogonalLoop=1;jettySize=auto;html=1;exitX=0.5;exitY=0;exitDx=0;exitDy=0;entryX=0.5;entryY=0;entryDx=0;entryDy=0;shape=link;" edge="1" parent="WIyWlLk6GJQsqaUBKTNV-1" source="Tp_ZuXKNJoOYkCJ87Kme-42" target="Tp_ZuXKNJoOYkCJ87Kme-0">
          <mxGeometry relative="1" as="geometry" />
        </mxCell>
        <mxCell id="Tp_ZuXKNJoOYkCJ87Kme-1" value="Pedido" style="whiteSpace=wrap;html=1;align=center;" vertex="1" parent="WIyWlLk6GJQsqaUBKTNV-1">
          <mxGeometry x="1070" y="350" width="100" height="40" as="geometry" />
        </mxCell>
        <mxCell id="Tp_ZuXKNJoOYkCJ87Kme-31" style="edgeStyle=orthogonalEdgeStyle;rounded=0;orthogonalLoop=1;jettySize=auto;html=1;exitX=0;exitY=0.5;exitDx=0;exitDy=0;entryX=0.5;entryY=0;entryDx=0;entryDy=0;" edge="1" parent="WIyWlLk6GJQsqaUBKTNV-1" source="Tp_ZuXKNJoOYkCJ87Kme-2" target="Tp_ZuXKNJoOYkCJ87Kme-27">
          <mxGeometry relative="1" as="geometry" />
        </mxCell>
        <mxCell id="Tp_ZuXKNJoOYkCJ87Kme-32" style="edgeStyle=orthogonalEdgeStyle;rounded=0;orthogonalLoop=1;jettySize=auto;html=1;exitX=0;exitY=1;exitDx=0;exitDy=0;entryX=0.5;entryY=0;entryDx=0;entryDy=0;" edge="1" parent="WIyWlLk6GJQsqaUBKTNV-1" source="Tp_ZuXKNJoOYkCJ87Kme-2" target="Tp_ZuXKNJoOYkCJ87Kme-28">
          <mxGeometry relative="1" as="geometry" />
        </mxCell>
        <mxCell id="Tp_ZuXKNJoOYkCJ87Kme-33" style="edgeStyle=orthogonalEdgeStyle;rounded=0;orthogonalLoop=1;jettySize=auto;html=1;exitX=0.5;exitY=1;exitDx=0;exitDy=0;entryX=0.5;entryY=0;entryDx=0;entryDy=0;" edge="1" parent="WIyWlLk6GJQsqaUBKTNV-1" source="Tp_ZuXKNJoOYkCJ87Kme-2" target="Tp_ZuXKNJoOYkCJ87Kme-29">
          <mxGeometry relative="1" as="geometry" />
        </mxCell>
        <mxCell id="Tp_ZuXKNJoOYkCJ87Kme-34" style="edgeStyle=orthogonalEdgeStyle;rounded=0;orthogonalLoop=1;jettySize=auto;html=1;exitX=1;exitY=0.5;exitDx=0;exitDy=0;entryX=0.5;entryY=0;entryDx=0;entryDy=0;" edge="1" parent="WIyWlLk6GJQsqaUBKTNV-1" source="Tp_ZuXKNJoOYkCJ87Kme-2" target="Tp_ZuXKNJoOYkCJ87Kme-30">
          <mxGeometry relative="1" as="geometry" />
        </mxCell>
        <mxCell id="Tp_ZuXKNJoOYkCJ87Kme-2" value="Produto" style="whiteSpace=wrap;html=1;align=center;" vertex="1" parent="WIyWlLk6GJQsqaUBKTNV-1">
          <mxGeometry x="770" y="620" width="100" height="40" as="geometry" />
        </mxCell>
        <mxCell id="Tp_ZuXKNJoOYkCJ87Kme-3" value="id" style="ellipse;whiteSpace=wrap;html=1;align=center;fontStyle=4;" vertex="1" parent="WIyWlLk6GJQsqaUBKTNV-1">
          <mxGeometry x="350" y="370" width="100" height="40" as="geometry" />
        </mxCell>
        <mxCell id="Tp_ZuXKNJoOYkCJ87Kme-4" value="nome_usuario" style="ellipse;whiteSpace=wrap;html=1;align=center;" vertex="1" parent="WIyWlLk6GJQsqaUBKTNV-1">
          <mxGeometry x="480" y="465" width="100" height="40" as="geometry" />
        </mxCell>
        <mxCell id="Tp_ZuXKNJoOYkCJ87Kme-5" value="senha" style="ellipse;whiteSpace=wrap;html=1;align=center;" vertex="1" parent="WIyWlLk6GJQsqaUBKTNV-1">
          <mxGeometry x="600" y="460" width="100" height="40" as="geometry" />
        </mxCell>
        <mxCell id="Tp_ZuXKNJoOYkCJ87Kme-6" value="admin" style="ellipse;whiteSpace=wrap;html=1;align=center;" vertex="1" parent="WIyWlLk6GJQsqaUBKTNV-1">
          <mxGeometry x="660" y="390" width="100" height="40" as="geometry" />
        </mxCell>
        <mxCell id="Tp_ZuXKNJoOYkCJ87Kme-7" value="data_nasc" style="ellipse;whiteSpace=wrap;html=1;align=center;" vertex="1" parent="WIyWlLk6GJQsqaUBKTNV-1">
          <mxGeometry x="370" y="440" width="100" height="40" as="geometry" />
        </mxCell>
        <mxCell id="Tp_ZuXKNJoOYkCJ87Kme-13" value="id" style="ellipse;whiteSpace=wrap;html=1;align=center;fontStyle=4;" vertex="1" parent="WIyWlLk6GJQsqaUBKTNV-1">
          <mxGeometry x="890" y="400" width="100" height="40" as="geometry" />
        </mxCell>
        <mxCell id="Tp_ZuXKNJoOYkCJ87Kme-15" value="&lt;span style=&quot;border-bottom: 1px dotted&quot;&gt;cliente&lt;/span&gt;" style="ellipse;whiteSpace=wrap;html=1;align=center;" vertex="1" parent="WIyWlLk6GJQsqaUBKTNV-1">
          <mxGeometry x="960" y="460" width="100" height="40" as="geometry" />
        </mxCell>
        <mxCell id="Tp_ZuXKNJoOYkCJ87Kme-16" value="data_emitido" style="ellipse;whiteSpace=wrap;html=1;align=center;" vertex="1" parent="WIyWlLk6GJQsqaUBKTNV-1">
          <mxGeometry x="1210" y="380" width="100" height="40" as="geometry" />
        </mxCell>
        <mxCell id="Tp_ZuXKNJoOYkCJ87Kme-18" value="&lt;span style=&quot;border-bottom: 1px dotted&quot;&gt;produtos&lt;/span&gt;" style="ellipse;whiteSpace=wrap;html=1;align=center;" vertex="1" parent="WIyWlLk6GJQsqaUBKTNV-1">
          <mxGeometry x="1200" y="460" width="100" height="40" as="geometry" />
        </mxCell>
        <mxCell id="Tp_ZuXKNJoOYkCJ87Kme-20" value="total" style="ellipse;whiteSpace=wrap;html=1;align=center;" vertex="1" parent="WIyWlLk6GJQsqaUBKTNV-1">
          <mxGeometry x="1087" y="465" width="100" height="40" as="geometry" />
        </mxCell>
        <mxCell id="Tp_ZuXKNJoOYkCJ87Kme-27" value="id" style="ellipse;whiteSpace=wrap;html=1;align=center;fontStyle=4;" vertex="1" parent="WIyWlLk6GJQsqaUBKTNV-1">
          <mxGeometry x="620" y="660" width="100" height="40" as="geometry" />
        </mxCell>
        <mxCell id="Tp_ZuXKNJoOYkCJ87Kme-28" value="quantidade" style="ellipse;whiteSpace=wrap;html=1;align=center;" vertex="1" parent="WIyWlLk6GJQsqaUBKTNV-1">
          <mxGeometry x="740" y="710" width="100" height="40" as="geometry" />
        </mxCell>
        <mxCell id="Tp_ZuXKNJoOYkCJ87Kme-29" value="preco" style="ellipse;whiteSpace=wrap;html=1;align=center;" vertex="1" parent="WIyWlLk6GJQsqaUBKTNV-1">
          <mxGeometry x="870" y="700" width="100" height="40" as="geometry" />
        </mxCell>
        <mxCell id="Tp_ZuXKNJoOYkCJ87Kme-30" value="esta_em_baixa" style="ellipse;whiteSpace=wrap;html=1;align=center;" vertex="1" parent="WIyWlLk6GJQsqaUBKTNV-1">
          <mxGeometry x="920" y="640" width="100" height="40" as="geometry" />
        </mxCell>
        <mxCell id="Tp_ZuXKNJoOYkCJ87Kme-43" value="" style="edgeStyle=orthogonalEdgeStyle;rounded=0;orthogonalLoop=1;jettySize=auto;html=1;exitX=0.5;exitY=0;exitDx=0;exitDy=0;entryX=0.5;entryY=0;entryDx=0;entryDy=0;shape=link;" edge="1" parent="WIyWlLk6GJQsqaUBKTNV-1" source="Tp_ZuXKNJoOYkCJ87Kme-1" target="Tp_ZuXKNJoOYkCJ87Kme-42">
          <mxGeometry relative="1" as="geometry">
            <mxPoint x="1120" y="350" as="sourcePoint" />
            <mxPoint x="560" y="360" as="targetPoint" />
          </mxGeometry>
        </mxCell>
        <mxCell id="Tp_ZuXKNJoOYkCJ87Kme-42" value="emitido por" style="shape=rhombus;perimeter=rhombusPerimeter;whiteSpace=wrap;html=1;align=center;" vertex="1" parent="WIyWlLk6GJQsqaUBKTNV-1">
          <mxGeometry x="770" y="300" width="120" height="60" as="geometry" />
        </mxCell>
        <mxCell id="Tp_ZuXKNJoOYkCJ87Kme-45" value="" style="edgeStyle=orthogonalEdgeStyle;rounded=0;orthogonalLoop=1;jettySize=auto;html=1;exitX=0;exitY=1;exitDx=0;exitDy=0;entryX=0.5;entryY=0;entryDx=0;entryDy=0;shape=link;" edge="1" parent="WIyWlLk6GJQsqaUBKTNV-1" source="Tp_ZuXKNJoOYkCJ87Kme-1" target="Tp_ZuXKNJoOYkCJ87Kme-44">
          <mxGeometry relative="1" as="geometry">
            <mxPoint x="1070" y="390" as="sourcePoint" />
            <mxPoint x="820" y="620" as="targetPoint" />
          </mxGeometry>
        </mxCell>
        <mxCell id="Tp_ZuXKNJoOYkCJ87Kme-46" style="edgeStyle=orthogonalEdgeStyle;rounded=0;orthogonalLoop=1;jettySize=auto;html=1;exitX=0.5;exitY=1;exitDx=0;exitDy=0;entryX=0.5;entryY=0;entryDx=0;entryDy=0;shape=link;" edge="1" parent="WIyWlLk6GJQsqaUBKTNV-1" source="Tp_ZuXKNJoOYkCJ87Kme-44" target="Tp_ZuXKNJoOYkCJ87Kme-2">
          <mxGeometry relative="1" as="geometry" />
        </mxCell>
        <mxCell id="Tp_ZuXKNJoOYkCJ87Kme-44" value="comprados" style="shape=rhombus;perimeter=rhombusPerimeter;whiteSpace=wrap;html=1;align=center;" vertex="1" parent="WIyWlLk6GJQsqaUBKTNV-1">
          <mxGeometry x="760" y="505" width="120" height="60" as="geometry" />
        </mxCell>
      </root>
    </mxGraphModel>
  </diagram>
</mxfile>
